<svg width="32" height="32" viewBox="0 0 32 32" fill="none" xmlns="http://www.w3.org/2000/svg">
<path d="M8 13.3337V10.667C8 6.25366 9.33333 2.66699 16 2.66699C22.6667 2.66699 24 6.25366 24 10.667V13.3337" stroke="#292D32" stroke-width="1.5" stroke-linecap="round" stroke-linejoin="round"/>
<path d="M16.0001 24.6667C17.841 24.6667 19.3334 23.1743 19.3334 21.3333C19.3334 19.4924 17.841 18 16.0001 18C14.1591 18 12.6667 19.4924 12.6667 21.3333C12.6667 23.1743 14.1591 24.6667 16.0001 24.6667Z" stroke="#292D32" stroke-width="1.5" stroke-linecap="round" stroke-linejoin="round"/>
<path d="M22.6667 29.333H9.33341C4.00008 29.333 2.66675 27.9997 2.66675 22.6663V19.9997C2.66675 14.6663 4.00008 13.333 9.33341 13.333H22.6667C28.0001 13.333 29.3334 14.6663 29.3334 19.9997V22.6663C29.3334 27.9997 28.0001 29.333 22.6667 29.333Z" stroke="#292D32" stroke-width="1.5" stroke-linecap="round" stroke-linejoin="round"/>
</svg>
